Coordinates
version=1
nRows=19
nColumns=24
inDegrees=yes

Units are S.I. units (second, meters, Newtons, ...)
Angles are in degrees.

endheader
time	pelvis_tilt	pelvis_list	pelvis_rotation	pelvis_tx	pelvis_ty	pelvis_tz	hip_flexion_r	hip_adduction_r	hip_rotation_r	knee_angle_r	ankle_angle_r	subtalar_angle_r	mtp_angle_r	hip_flexion_l	hip_adduction_l	hip_rotation_l	knee_angle_l	ankle_angle_l	subtalar_angle_l	mtp_angle_l	lumbar_extension	lumbar_bending	lumbar_rotation
      1.35500000	     25.03369199	     -2.22237669	      2.78850227	     -0.61090800	      0.84077603	     -0.02753749	    -44.28044897	      7.48494589	    -18.08111675	     -3.69968250	     28.23429498	     16.98783814	     34.57393013	     -6.93653976	      0.71596316	    -14.89241006	      0.94627496	     15.27375147	      5.48397759	    122.09315368	    -39.83302057	      3.14122495	     -8.51602298
      1.36000000	     25.11789245	     -2.33470781	      2.65293955	     -0.60460636	      0.84039829	     -0.02732557	    -44.46582446	      7.33498529	    -17.81179078	     -4.61642405	     28.28258691	     17.12764498	     34.68148936	     -6.97525759	      0.61152479	    -14.94522076	      0.15065419	     14.87884649	      5.21780889	    122.14254156	    -39.90093886	      3.08254848	     -8.47159242
      1.36500000	     25.17247255	     -2.44840092	      2.52261560	     -0.59831832	      0.84005823	     -0.02715171	    -44.55076009	      7.16514548	    -17.56152028	     -5.68919396	     28.37716455	     17.35067031	     34.94523850	     -6.97520214	      0.49878676	    -14.92475159	     -0.71426309	     14.41542075	      4.74646750	    122.24917508	    -39.94038181	      3.02998383	     -8.48102115
      1.37000000	     25.22518059	     -2.53146758	      2.49499883	     -0.59211362	      0.83976154	     -0.02714344	    -44.58306802	      7.02784017	    -17.47871414	     -6.84900982	     28.40355644	     17.61883659	     35.64955666	     -6.93722684	      0.39631969	    -14.61940524	     -1.68337630	     13.85178645	      3.92448825	    122.50988404	    -39.98703571	      3.00915654	     -8.53803269
      1.37500000	     25.27031152	     -2.58205393	      2.40343839	     -0.58581178	      0.83958350	     -0.02703214	    -44.56043165	      6.81193539	    -17.35030453	     -8.11837087	     28.22657020	     17.71065901	     36.91080175	     -6.90187710	      0.32575879	    -14.46560868	     -2.69954018	     13.25880264	      3.13876891	    122.88331441	    -40.01928519	      2.91270233	     -8.59969998
      1.38000000	     25.34445102	     -2.66327145	      2.25345427	     -0.57957506	      0.83953913	     -0.02678371	    -44.49631708	      6.57409283	    -17.07082918	     -9.54814480	     28.25584762	     17.76429065	     37.26080879	     -6.86890065	      0.19308610	    -14.49103711	     -3.83662752	     12.70417384	      2.76502862	    122.97673724	    -40.09516889	      2.80071712	     -8.57787174
      1.38500000	     25.39592000	     -2.70848611	      2.22410087	     -0.57338557	      0.83952271	     -0.02676457	    -44.35313365	      6.37386569	    -17.00975873	    -11.05212423	     27.90770511	     17.73815809	     39.93773296	     -6.78858981	      0.08903028	    -14.20212897	     -5.01977499	     12.12262046	      1.92993099	    123.38455971	    -40.15142843	      2.73269765	     -8.64505563
      1.39000000	     25.41343363	     -2.71947162	      2.18401677	     -0.56719446	      0.83953732	     -0.02674405	    -44.08778698	      6.11964832	    -16.98140825	    -12.77719724	     27.81267553	     17.77897839	     40.59436086	     -6.66001117	      0.01446419	    -13.92987772	     -6.26454816	     11.55787205	      1.13503597	    123.44612431	    -40.17562888	      2.62406218	     -8.75588789
      1.39500000	     25.41845749	     -2.71960601	      2.15185807	     -0.56099938	      0.83962086	     -0.02676476	    -43.73997796	      5.84615495	    -16.99025977	    -14.63898694	     27.57049018	     17.73930243	     41.93443539	     -6.52029462	     -0.05347199	    -13.63529290	     -7.53057854	     11.04856101	      0.34454948	    123.52032463	    -40.18623402	      2.51282298	     -8.86239760
      1.40000000	     25.40426847	     -2.72182045	      2.11281577	     -0.55481139	      0.83975694	     -0.02680277	    -43.28749562	      5.55078881	    -17.01597378	    -16.67061761	     27.18428913	     17.59120586	     43.71654111	     -6.37486226	     -0.12654770	    -13.34233568	     -8.79108006	     10.68929752	     -0.29775933	    123.55103630	    -40.18090401	      2.40183250	     -8.93116264
      1.40500000	     25.36226392	     -2.68300645	      2.12057108	     -0.54861713	      0.83989288	     -0.02688285	    -42.76248916	      5.24861570	    -17.11060840	    -18.77818906	     26.80945772	     17.41778422	     44.91813520	     -6.14953404	     -0.17605730	    -13.05824423	    -10.19677909	     10.44973103	     -0.87232307	    123.56032427	    -40.14764363	      2.27590570	     -9.10214449
      1.41000000	     25.32601663	     -2.63114881	      2.08683645	     -0.54241545	      0.84011381	     -0.02699991	    -42.15360457	      4.87628545	    -17.22351883	    -21.06026109	     26.22584402	     17.13787909	     46.97028521	     -6.03117970	     -0.18078351	    -12.72778498	    -11.39078589	     10.27238308	     -1.42399509	    123.50771961	    -40.12213979	      2.12488049	     -9.18489975
      1.41500000	     25.24862526	     -2.55612591	      2.06517811	     -0.53621607	      0.84030492	     -0.02713133	    -41.43423009	      4.47523533	    -17.37618041	    -23.48010307	     25.77089277	     16.93506055	     47.42110213	     -5.83168812	     -0.17828373	    -12.48379224	    -12.70412231	     10.28089143	     -1.70431790	    123.52046240	    -40.05397646	      1.96052496	     -9.29272070
      1.42000000	     25.17521508	     -2.40866995	      2.05886722	     -0.52995521	      0.84058489	     -0.02737764	    -40.68138700	      4.00192682	    -17.62533711	    -25.92232291	     24.85531494	     16.40587206	     50.28284496	     -5.75589769	     -0.04971475	    -12.05569144	    -13.74796817	     10.23874861	     -2.36659760	    123.35972870	    -39.98604660	      1.74661715	     -9.47968706
      1.42500000	     25.06221550	     -2.24034535	      2.07610719	     -0.52368741	      0.84080595	     -0.02763345	    -39.83490507	      3.51396256	    -17.90711172	    -28.45890082	     24.04894392	     15.82553688	     51.60868388	     -5.61092647	      0.08359588	    -11.70645725	    -14.88565737	     10.46325905	     -2.70567955	    123.29208063	    -39.87326577	      1.52534373	     -9.70504028
      1.43000000	     24.94394946	     -2.04659126	      2.01265621	     -0.51741888	      0.84109835	     -0.02787622	    -38.91522305	      2.91990317	    -18.13998377	    -31.09457347	     23.08879398	     15.25787450	     53.36749850	     -5.57281732	      0.28133606	    -11.40683279	    -15.78257392	     10.61789864	     -3.04241103	    123.15639656	    -39.75807240	      1.24689607	     -9.82021092
      1.43500000	     24.82369265	     -1.78603823	      1.95219834	     -0.51111088	      0.84137063	     -0.02811994	    -37.96852356	      2.25915150	    -18.42155788	    -33.76806393	     22.24610260	     14.61361773	     53.59191816	     -5.55952828	      0.54710171	    -11.17413299	    -16.64753927	     10.91805129	     -3.15026119	    123.14344640	    -39.63622056	      0.90767529	     -9.98997229
      1.44000000	     24.67843218	     -1.50028137	      1.97599570	     -0.50481312	      0.84164947	     -0.02855272	    -36.98807972	      1.61357442	    -18.78211384	    -36.36629243	     21.08630473	     13.73273589	     55.20448103	     -5.58153770	      0.87362622	    -10.72079900	    -17.34565271	     11.24275072	     -3.62501748	    122.93527416	    -39.49051358	      0.60393929	    -10.27635129
      1.44500000	     24.50759885	     -1.23309759	      1.87544339	     -0.49850520	      0.84193590	     -0.02878135	    -35.92894381	      0.91471061	    -18.94516225	    -39.00169149	     20.08419180	     12.85611181	     55.42335079	     -5.62542404	      1.17342120	    -10.55145140	    -17.97363453	     11.66000332	     -3.70164233	    122.88850579	    -39.31424382	      0.24392380	    -10.38554124
